<?xml version="1.0" standalone="no"?>
<!DOCTYPE svg PUBLIC "-//W3C//DTD SVG 20010904//EN"
 "http://www.w3.org/TR/2001/REC-SVG-20010904/DTD/svg10.dtd">
<svg version="1.0" xmlns="http://www.w3.org/2000/svg"
 width="180.000000pt" height="180.000000pt" viewBox="0 0 180.000000 180.000000"
 preserveAspectRatio="xMidYMid meet">
<metadata>
Created by potrace 1.14, written by Peter Selinger 2001-2017
</metadata>
<g transform="translate(0.000000,180.000000) scale(0.100000,-0.100000)"
fill="#000000" stroke="none">
<path d="M570 1737 c-70 -33 -95 -70 -139 -204 l-33 -102 -81 -3 -82 -3 1 -70
c1 -82 20 -129 72 -179 35 -35 35 -35 36 -126 1 -66 5 -93 15 -100 10 -6 0
-15 -39 -35 -29 -15 -63 -38 -76 -52 -47 -50 -43 -140 7 -198 l31 -35 -46 -58
c-48 -61 -94 -160 -98 -211 -1 -17 -5 -31 -8 -31 -9 0 -5 -64 5 -80 5 -9 4
-11 -3 -6 -7 4 -12 1 -12 -9 0 -10 5 -13 12 -9 7 5 8 3 2 -7 -11 -18 -12 -59
-1 -83 6 -13 6 -16 -2 -12 -6 4 -11 0 -11 -9 0 -10 5 -13 12 -9 10 6 10 4 2
-7 -5 -8 -10 -21 -10 -29 1 -13 85 -15 681 -18 439 -2 692 1 715 7 102 30 172
155 147 259 -12 47 -57 108 -148 202 -80 82 -89 96 -74 105 48 28 107 93 132
143 34 70 34 70 35 162 1 61 -3 86 -24 132 -32 69 -88 132 -150 167 -26 15
-45 30 -42 34 4 3 7 42 9 86 l2 81 -83 0 -82 0 -28 88 c-33 106 -59 161 -88
185 -70 58 -161 60 -248 5 l-53 -34 -70 38 c-75 40 -135 48 -185 25z"/>
</g>
</svg>
